<svg width="37" height="37" viewBox="0 0 37 37" fill="none" xmlns="http://www.w3.org/2000/svg">
<path fill-rule="evenodd" clip-rule="evenodd" d="M27.1136 23.3619C24.8418 22.9639 22.576 21.2955 21.2109 18.7471C19.597 15.7345 19.7127 12.3711 21.271 10.2354C21.4308 10.0165 21.6056 9.81053 21.7954 9.61912C22.1613 9.24996 22.0555 8.56112 21.541 8.47705C21.2054 8.42222 20.8645 8.3833 20.5189 8.36107C20.2926 8.34651 20.0642 8.33911 19.8342 8.33911C14.0676 8.33911 9.39285 12.9842 9.39285 18.7141C9.39285 24.4441 14.0676 29.0891 19.8342 29.0891C23.1156 29.0891 26.0435 27.585 27.9576 25.2327C28.1751 24.9655 28.3795 24.6872 28.5699 24.399C28.8411 23.9884 28.4649 23.4668 27.9708 23.4511C27.6862 23.4421 27.3998 23.4121 27.1136 23.3619Z" stroke="white" stroke-width="1.5"></path>
</svg>
