<svg width="40" height="43" viewBox="0 0 40 43" fill="none" xmlns="http://www.w3.org/2000/svg">
<path fill-rule="evenodd" clip-rule="evenodd" d="M35.9488 30.628C31.4683 29.8428 26.9998 26.5525 24.3074 21.5266C21.1245 15.5851 21.3528 8.9519 24.4261 4.73991C24.7411 4.3082 25.086 3.90192 25.4602 3.52443C26.1819 2.79638 25.9733 1.43785 24.9585 1.27204C24.2967 1.16392 23.6243 1.08714 22.9428 1.0433C22.4964 1.01458 22.046 1 21.5923 1C10.2195 1 1 10.1609 1 21.4615C1 32.7621 10.2195 41.9231 21.5923 41.9231C28.064 41.9231 33.8384 38.9566 37.6134 34.3175C38.0423 33.7904 38.4454 33.2417 38.8208 32.6733C39.3557 31.8635 38.6138 30.8348 37.6394 30.8039C37.078 30.786 36.5133 30.7269 35.9488 30.628Z" stroke="white" stroke-width="1.5"/>
</svg>
