<svg width="72" height="41" viewBox="0 0 72 41" fill="none" xmlns="http://www.w3.org/2000/svg">
<path d="M13.0841 13.243C12.5465 13.6488 12.1881 14.0546 11.4712 14.4604C9.67899 15.4748 7.88673 16.0835 6.27374 17.3009C3.04775 19.7356 3.0477 22.779 6.45292 24.808C9.85813 26.8369 13.4426 28.2572 17.2062 29.0688C21.866 30.0832 26.5258 30.489 31.3648 31.0977C33.3362 31.3006 35.3077 31.0977 37.4584 31.0977C37.4584 29.4745 37.6375 27.8514 37.6375 25.8224C39.7882 28.663 41.5804 31.0977 43.5518 33.5324C41.9388 35.3585 39.9674 37.5903 37.6375 40.4308C37.6375 38.4019 37.4584 36.9816 37.4584 35.5614C32.2609 35.1556 27.0634 34.7498 22.0452 34.1411C16.1309 33.3295 10.3958 32.1122 5.01916 28.8659C2.68928 27.4456 0.000976562 25.8224 0.000976562 22.3732C0.000976562 18.7211 2.68928 17.098 5.01916 15.6777C7.34905 14.2575 9.85822 13.4459 12.3673 12.2285C12.7258 12.6343 12.9049 13.0401 13.0841 13.243Z" fill="#DF3636"/>
<path d="M46.9568 34.5466C46.5983 30.4887 46.5982 30.6916 49.4658 30.0829C54.1256 28.8656 58.7853 27.4453 63.2659 25.8222C65.2373 25.2135 67.2088 23.5903 67.2088 20.9527C67.2088 18.3151 65.0582 17.3006 63.4452 16.2861C62.1906 15.4745 60.936 15.0688 59.6815 14.4601C59.1438 14.2572 58.7854 13.6485 58.6062 12.8369C62.9075 13.8514 66.8503 15.0688 70.0763 18.7209C72.0477 20.9527 72.0477 23.5903 70.0763 25.8222C69.001 27.0395 67.7465 28.054 66.3127 28.8656C60.3984 32.3148 53.7672 33.5321 46.9568 34.5466Z" fill="#DF3636"/>
<path d="M59.1439 0.459961C57.3517 0.459961 55.918 2.08312 55.918 4.11206C55.918 6.14101 57.3517 7.76416 59.1439 7.76416C60.9362 7.76416 62.3699 6.14101 62.3699 4.11206C62.3699 2.08312 60.9362 0.459961 59.1439 0.459961ZM59.1439 5.53232C58.4271 5.53232 57.7102 4.92364 57.7102 3.90917C57.7102 3.09759 58.2478 2.28601 59.1439 2.28601C59.8608 2.28601 60.5777 2.8947 60.5777 3.90917C60.5777 4.92364 59.8608 5.53232 59.1439 5.53232Z" fill="#DF3636"/>
<path d="M27.0633 15.8812C27.0633 19.3304 24.7335 21.968 21.5075 21.968C18.4607 21.968 16.1309 19.5333 16.1309 16.0841H18.8192C18.9984 17.9102 20.0737 19.1275 21.6867 19.1275C23.2997 19.1275 24.5543 17.7073 24.5543 15.6783C24.5543 13.6494 23.2998 12.432 21.3283 12.432H19.3568V11.8233L22.7621 5.93939H16.6685V3.30176H26.705V3.91044L23.1206 10.2002C25.2712 10.8089 27.0633 13.0407 27.0633 15.8812Z" fill="#DF3636"/>
<path d="M41.2221 15.6771C41.2221 19.3292 38.7131 22.1697 35.3079 22.1697C31.7234 22.1697 29.3936 19.5321 29.3936 15.6771C29.3936 14.054 29.9312 12.025 31.1858 9.59028L34.4117 3.09766H37.2792C35.3078 6.95265 34.591 8.57581 33.8741 9.99607C34.591 9.79318 35.1286 9.59028 35.8455 9.59028C38.713 9.59028 41.2221 12.025 41.2221 15.6771ZM38.5338 15.6771C38.5338 13.4453 37.1001 12.025 35.3079 12.025C33.3364 12.025 32.0819 13.4453 32.0819 15.6771C32.0819 17.7061 33.5156 19.3292 35.3079 19.3292C37.1001 19.3292 38.5338 17.7061 38.5338 15.6771Z" fill="#DF3636"/>
<path d="M43.0137 12.4315C43.0137 6.54761 45.5227 2.89551 49.4656 2.89551C53.4085 2.89551 55.9177 6.54761 55.9177 12.4315C55.9177 18.3155 53.4085 21.9676 49.4656 21.9676C45.5227 21.9676 43.0137 18.3155 43.0137 12.4315ZM53.2293 12.4315C53.2293 8.17076 51.7955 5.73603 49.4656 5.73603C47.1357 5.73603 45.702 8.17076 45.702 12.4315C45.702 16.6923 47.1357 19.1271 49.4656 19.1271C51.7955 19.33 53.2293 16.6923 53.2293 12.4315Z" fill="#DF3636"/>
</svg>
