<svg width="72" height="82" viewBox="0 0 72 82" fill="none" xmlns="http://www.w3.org/2000/svg">
<path d="M69.5333 2.81144C68.458 2.81144 67.2034 2.81144 66.1281 2.81144C58.78 3.21722 51.7903 5.04328 45.1591 8.69538C37.0942 12.9562 30.2837 19.043 24.9071 27.1588C21.1434 32.6369 18.4551 38.7238 16.4837 45.2164C16.3044 45.6222 16.4837 45.8251 16.6629 46.028C18.2759 47.854 19.8889 49.6801 21.5019 51.5061C21.6811 51.709 21.8603 52.1148 21.8603 52.5206C21.8603 52.9264 21.6811 53.3322 21.3227 53.5351C20.9642 53.7379 20.4265 53.7379 20.2473 53.3322C19.3512 52.3177 18.6343 51.5061 17.7382 50.4916C16.6629 49.2743 15.7668 48.0569 14.6914 47.0424C14.333 46.6366 14.1538 46.028 14.333 45.4193C16.6629 37.5064 20.0681 30.2022 24.9071 23.7096C29.7461 17.014 35.6604 11.7388 42.2916 7.8838C48.3851 4.2317 55.0163 1.99986 61.8268 0.985385C64.6943 0.579596 67.5619 0.376702 70.4294 0.579596C71.3255 0.579596 71.5047 0.985385 71.684 1.99986C72.0424 15.188 69.1749 27.3617 62.9021 38.7238C56.6293 49.883 48.0267 58.2016 37.2734 63.4769C35.6604 64.2885 33.8682 64.8971 32.076 65.7087C31.5383 65.9116 31.1798 65.9116 30.8214 65.3029C29.0292 63.274 27.0577 61.0422 25.2655 59.0132C24.9071 58.6074 24.7279 57.9987 25.0863 57.39C25.4448 56.7814 26.1616 56.7814 26.6993 57.39C28.3123 59.2161 29.9253 61.0422 31.5383 62.8682C31.8967 63.274 32.076 63.274 32.4344 63.0711C40.3202 60.0277 47.3098 55.1582 53.2241 48.6656C60.2138 40.9556 64.8735 31.8253 67.5619 21.4777C68.9956 15.7967 69.7125 9.91274 69.7125 3.82591C69.7125 3.42012 69.5333 3.21722 69.5333 2.81144Z" fill="#41AB97"/>
<path d="M59.6756 26.5494C59.6756 33.4478 54.8366 38.926 48.7431 38.926C42.6495 38.926 37.8105 33.4478 37.8105 26.5494C37.8105 19.8539 42.6495 14.1729 48.5639 14.1729C54.8366 14.1729 59.6756 19.651 59.6756 26.5494ZM57.5249 26.7523C57.5249 21.0713 53.5821 16.6076 48.5639 16.6076C43.5456 16.6076 39.6028 21.0713 39.6028 26.7523C39.6028 32.4334 43.5456 36.897 48.5639 36.897C53.5821 36.6941 57.5249 32.2305 57.5249 26.7523Z" fill="#41AB97"/>
<path d="M32.2549 78.4909C33.5094 77.6793 34.764 76.6649 35.8393 75.6504C39.4237 71.9983 41.3952 67.5346 42.2913 62.2594C42.4705 61.4478 42.8289 61.042 43.3666 61.042C44.0835 61.042 44.4419 61.6507 44.4419 62.4623C44.2627 63.4767 44.0835 64.6941 43.7251 65.7086C41.7536 72.607 38.1692 77.6793 32.6133 81.1285C31.3588 81.9401 30.8211 81.5343 30.6419 80.1141C29.925 75.8533 29.2081 71.3896 28.4912 67.1288C28.4912 66.723 28.4912 66.3172 28.4912 66.1143C28.6704 65.7086 29.0289 65.5057 29.5665 65.5057C29.925 65.5057 30.2834 65.9115 30.4626 66.3172C30.6419 67.5346 30.8211 68.752 31.1795 70.1722C31.3588 73.0128 31.8964 75.6504 32.2549 78.4909Z" fill="#41AB97"/>
<path d="M2.68316 45.0134C3.75849 45.2163 4.83382 45.4192 5.72993 45.6221C8.23904 46.2308 10.7481 46.6366 13.078 47.2453C13.2572 47.2453 13.2572 47.2453 13.4365 47.2453C13.9741 47.4482 14.3326 48.0569 14.1534 48.6655C13.9741 49.2742 13.6157 49.68 12.8988 49.4771C11.465 49.0713 9.85203 48.8684 8.41826 48.4626C6.08838 47.854 3.75849 47.4482 1.24939 46.8395C1.07017 46.8395 1.07017 46.8395 0.890946 46.8395C-0.00516259 46.6366 -0.184384 46.0279 0.174059 45.0134C1.24939 42.7816 2.50394 40.5498 4.11694 38.7237C7.52215 34.6658 11.6443 32.434 16.304 31.2166C16.4832 31.2166 16.6625 31.2166 16.6625 31.0137C17.2001 30.8108 17.7378 31.2166 17.917 31.8253C18.0962 32.434 17.7378 33.0427 17.0209 33.2456C15.9456 33.6513 14.691 33.8542 13.6157 34.26C8.95592 36.0861 5.37149 39.3324 2.68316 43.999C2.86239 44.6076 2.86239 44.8105 2.68316 45.0134Z" fill="#41AB97"/>
<path d="M15.4082 63.0718C15.5874 62.8689 15.7666 62.4631 15.9459 62.2602C19.3511 58.4052 22.5771 54.7531 25.9823 50.8981C27.2368 49.4778 28.3122 48.2605 29.5667 46.8402C30.1044 46.2315 30.6421 46.2315 31.1797 46.6373C31.5382 47.0431 31.5382 47.8547 31.0005 48.4634C27.0576 52.927 23.1147 57.5936 18.9926 62.0573C18.455 62.666 17.9173 63.4775 17.2004 64.0862C16.842 64.492 16.4835 64.492 16.1251 64.2891C15.5874 64.0862 15.4082 63.6804 15.4082 63.0718Z" fill="#41AB97"/>
<path d="M10.7482 68.3457C11.1066 68.5486 11.4651 68.7515 11.6443 69.1573C11.8235 69.5631 11.6443 69.9689 11.4651 70.3746C11.2858 70.5775 10.9274 70.9833 10.7482 71.3891C8.59752 73.8239 6.44685 76.4615 4.11697 78.8962C3.75853 79.0991 3.57931 79.302 3.22086 79.302C2.86242 79.302 2.50398 79.0991 2.32475 78.6933C2.14553 78.0846 2.14553 77.6788 2.50398 77.2731C3.93775 75.6499 5.37152 74.0267 6.8053 72.4036C7.88063 71.1862 8.77674 70.1718 9.85207 68.9544C10.2105 68.7515 10.3897 68.5486 10.7482 68.3457Z" fill="#41AB97"/>
<path d="M9.13506 60.0273C10.0312 60.0273 10.5688 61.0418 10.2104 61.6505C10.0312 61.8534 10.0312 62.0563 9.85195 62.2592C7.52206 64.8968 5.19218 67.5344 2.8623 70.1721L2.68308 70.375C2.14541 70.7808 1.60774 70.9836 1.2493 70.375C0.890858 69.9692 0.890858 69.1576 1.2493 68.7518C3.04152 66.7229 4.83374 64.6939 6.62595 62.665C7.34284 61.8534 7.88051 61.2447 8.59739 60.636C8.77661 60.2302 9.13506 60.0273 9.13506 60.0273Z" fill="#41AB97"/>
<path d="M19.1719 71.3907C19.1719 71.5936 18.9927 71.7965 18.8134 72.2023C16.3043 75.0428 13.9745 77.6804 11.4653 80.521C10.9277 81.1297 10.39 81.1297 9.85235 80.521C9.49391 80.1152 9.49391 79.3036 10.0316 78.8978C12.5407 76.0573 14.8706 73.4197 17.3797 70.5791C17.7381 70.1733 18.0966 69.9705 18.6342 70.1733C18.9927 70.3762 19.1719 70.5791 19.1719 71.3907Z" fill="#41AB97"/>
</svg>
