<svg width="59" height="87" viewBox="0 0 59 87" fill="none" xmlns="http://www.w3.org/2000/svg">
<path d="M23.6583 59.4061C22.9414 59.621 22.4037 59.836 21.8661 60.266C21.1492 58.9761 20.6116 57.4712 19.8947 56.3963C18.6401 54.2464 17.2063 52.3116 15.9518 50.1617C13.9803 46.937 12.3674 43.7122 11.6505 39.6275C10.0375 29.5232 14.6972 19.634 22.7622 15.7642C33.3363 10.6046 45.5234 19.204 47.1363 32.748C47.8532 38.9825 46.2402 44.1422 43.3727 49.0868C42.1181 51.2366 40.5052 53.3865 39.2506 55.7513C38.3545 57.2562 37.8169 58.7611 36.9207 60.266C36.5623 60.9109 36.2038 61.5559 35.6662 61.7709C31.5441 63.7057 27.422 65.4256 23.2999 67.1455C22.7622 67.3605 22.4038 67.1455 22.2245 66.7155C22.0453 66.0706 22.0453 65.4256 22.583 65.2106C22.9414 64.9956 23.2998 64.7807 23.6583 64.7807C27.2427 63.2758 30.8272 61.7709 34.4116 60.051C34.77 59.836 35.1285 59.4061 35.3077 58.9761C36.7415 55.7513 38.5337 53.1715 40.3259 50.1617C42.1182 47.3669 43.7311 44.7871 44.448 41.3474C46.2402 34.4679 44.9857 28.4483 41.0428 23.2887C36.5623 17.2691 30.8272 15.3343 24.3752 17.6991C17.9232 20.0639 14.3388 25.4385 13.0842 33.393C12.1881 38.9825 13.8011 43.7122 16.4894 48.0119C18.1024 50.5917 19.7154 53.1715 21.3284 55.7513C22.4038 56.6113 22.9414 57.9012 23.6583 59.4061Z" fill="#536FD1"/>
<path d="M22.7623 80.6896C22.583 80.4746 22.2246 80.2596 22.2246 79.8296C22.2246 79.3997 22.4039 78.9697 22.5831 78.5397C22.5831 78.3247 22.9415 78.3247 23.1207 78.3247C27.0636 76.6049 31.1857 74.885 35.1286 73.1651C36.0247 72.7351 36.3831 72.9501 36.5623 73.5951C36.7416 74.24 36.3831 74.885 35.6662 75.3149C31.5441 77.0348 27.6013 78.7547 23.4792 80.6896C23.3 80.4746 23.1207 80.4746 22.7623 80.6896Z" fill="#536FD1"/>
<path d="M22.7623 73.5948C22.583 73.3798 22.2246 73.1649 22.2246 72.7349C22.2246 72.3049 22.4039 71.875 22.5831 71.445C22.5831 71.23 22.9415 71.23 23.1207 71.23C27.0636 69.5101 31.1857 67.7902 35.1286 66.0704C36.0247 65.6404 36.3831 65.8554 36.5623 66.5003C36.7416 67.1453 36.5623 67.7902 35.6662 68.2202C31.5441 69.9401 27.6013 71.875 23.4792 73.5948C23.3 73.5948 23.1207 73.5948 22.7623 73.5948Z" fill="#536FD1"/>
<path d="M35.6666 79.6143C34.4121 84.7739 27.4224 87.7837 23.1211 84.9889C27.2432 83.269 31.3653 81.3341 35.6666 79.6143Z" fill="#536FD1"/>
<path d="M30.2893 4.36972C30.2893 5.22965 30.2893 6.08959 30.2893 6.94953C30.2893 7.59448 29.9308 8.02445 29.3932 8.02445C28.8555 8.02445 28.4971 7.59448 28.4971 6.94953C28.4971 5.22965 28.4971 3.50978 28.4971 1.57492C28.4971 0.929969 28.8555 0.5 29.3932 0.5C29.9308 0.5 30.2893 0.929969 30.2893 1.57492C30.2893 2.43486 30.2893 3.50978 30.2893 4.36972Z" fill="#536FD1"/>
<path d="M3.22695 34.4678C3.94383 34.4678 4.66074 34.4678 5.37763 34.4678C6.09452 34.4678 6.45297 34.8977 6.45297 35.5427C6.45297 36.1876 6.09452 36.6176 5.37763 36.6176C3.94386 36.6176 2.51009 36.6176 1.07632 36.6176C0.359431 36.6176 0.000976562 36.1876 0.000976562 35.5427C0.000976562 34.8977 0.359431 34.4678 1.07632 34.4678C1.79321 34.4678 2.51006 34.4678 3.22695 34.4678Z" fill="#536FD1"/>
<path d="M55.5595 36.8325C54.8426 36.8325 54.1257 36.8325 53.4088 36.8325C52.8711 36.8325 52.5127 36.4025 52.5127 35.7575C52.5127 35.1126 52.8711 34.6826 53.4088 34.6826C54.8426 34.6826 56.4556 34.6826 57.8893 34.6826C58.427 34.6826 58.7855 35.1126 58.7855 35.7575C58.7855 36.4025 58.427 36.8325 57.8893 36.8325C56.9932 36.8325 56.2764 36.8325 55.5595 36.8325Z" fill="#536FD1"/>
<path d="M8.96253 9.95996C9.32097 10.1749 9.50018 10.3899 9.67941 10.6049C10.7547 11.8948 11.6509 12.9697 12.7262 14.2596C13.2639 14.9046 13.2639 15.3346 12.7262 15.9795C12.3678 16.4095 11.8301 16.4095 11.2924 15.9795C10.2171 14.6896 9.14176 13.6147 8.24565 12.3248C8.06643 12.1098 7.8872 11.4649 8.06642 11.0349C8.24564 10.3899 8.78331 10.1749 8.96253 9.95996Z" fill="#536FD1"/>
<path d="M46.419 54.8906C46.7775 55.1056 46.9567 55.3206 47.1359 55.5356C48.2112 56.6105 49.1074 57.9004 50.1827 58.9753C50.7204 59.6203 50.7204 60.2652 50.3619 60.6952C50.0035 61.1252 49.4658 61.1252 48.9281 60.4802C47.8528 59.1903 46.9567 58.1154 45.8814 56.8255C45.7022 56.6105 45.5229 55.9655 45.7022 55.5356C45.7022 55.3206 46.0606 55.1056 46.419 54.8906Z" fill="#536FD1"/>
<path d="M50.7206 11.2489C50.5414 11.6789 50.3622 11.8939 50.183 12.1089C49.1076 13.3988 48.2115 14.4737 47.1362 15.7636C46.7777 16.1936 46.2401 16.4086 45.7024 15.7636C45.344 15.3336 45.344 14.6887 45.7024 14.0437C46.7778 12.7538 47.6738 11.4639 48.7492 10.389C48.9284 10.174 49.4661 9.95903 49.8245 10.174C50.1829 10.389 50.3622 11.0339 50.7206 11.2489Z" fill="#536FD1"/>
<path d="M8.96255 61.1252C8.78332 60.9103 8.42489 60.6953 8.24567 60.2653C8.06645 60.0503 8.24567 59.4054 8.24567 59.1904C9.321 57.9005 10.3963 56.3956 11.6509 55.1057C12.0093 54.6757 12.5469 54.6757 12.9054 55.1057C13.2638 55.5356 13.2638 56.1806 12.9054 56.6106C11.8301 57.9005 10.7548 59.1904 9.67942 60.4803C9.5002 60.9103 9.32099 61.1252 8.96255 61.1252Z" fill="#536FD1"/>
</svg>
