<svg width="11" height="12" viewBox="0 0 11 12" fill="none" xmlns="http://www.w3.org/2000/svg">
<path fill-rule="evenodd" clip-rule="evenodd" d="M9.55666 8.68133C8.42075 8.48229 7.28787 7.6481 6.60529 6.37392C5.79835 4.8676 5.85622 3.18592 6.63539 2.11808C6.71525 2.00863 6.80269 1.90563 6.89755 1.80993C7.08051 1.62535 7.02763 1.28093 6.77035 1.23889C6.60257 1.21148 6.43209 1.19201 6.25932 1.1809C6.14614 1.17362 6.03197 1.16992 5.91694 1.16992C3.03365 1.16992 0.696289 3.49245 0.696289 6.35742C0.696289 9.2224 3.03365 11.5449 5.91694 11.5449C7.55767 11.5449 9.02162 10.7929 9.97868 9.61673C10.0874 9.4831 10.1896 9.34399 10.2848 9.19989C10.4204 8.99456 10.2323 8.73378 9.98528 8.72593C9.84295 8.72141 9.69978 8.70641 9.55666 8.68133Z" stroke="white" stroke-width="0.75"/>
</svg>
