<svg width="11" height="12" viewBox="0 0 11 12" fill="none" xmlns="http://www.w3.org/2000/svg">
<path fill-rule="evenodd" clip-rule="evenodd" d="M9.55666 8.68085C8.42075 8.4818 7.28787 7.64762 6.60529 6.37343C5.79835 4.86711 5.85622 3.18544 6.63539 2.11759C6.71525 2.00814 6.80269 1.90514 6.89755 1.80944C7.08051 1.62486 7.02763 1.28044 6.77035 1.2384C6.60257 1.21099 6.43209 1.19153 6.25932 1.18041C6.14614 1.17313 6.03197 1.16943 5.91694 1.16943C3.03365 1.16943 0.696289 3.49196 0.696289 6.35694C0.696289 9.22192 3.03365 11.5444 5.91694 11.5444C7.55767 11.5444 9.02162 10.7924 9.97868 9.61624C10.0874 9.48261 10.1896 9.3435 10.2848 9.1994C10.4204 8.99408 10.2323 8.73329 9.98528 8.72544C9.84295 8.72092 9.69978 8.70593 9.55666 8.68085Z" stroke="white" stroke-width="0.75"/>
</svg>
