<svg width="11" height="12" viewBox="0 0 11 12" fill="none" xmlns="http://www.w3.org/2000/svg">
<path fill-rule="evenodd" clip-rule="evenodd" d="M9.55678 8.68085C8.42088 8.4818 7.28799 7.64762 6.60541 6.37343C5.79847 4.86711 5.85634 3.18544 6.63551 2.11759C6.71537 2.00814 6.80281 1.90514 6.89767 1.80944C7.08063 1.62486 7.02775 1.28044 6.77048 1.2384C6.60269 1.21099 6.43221 1.19153 6.25945 1.18041C6.14626 1.17313 6.0321 1.16943 5.91706 1.16943C3.03378 1.16943 0.696411 3.49196 0.696411 6.35694C0.696411 9.22192 3.03378 11.5444 5.91706 11.5444C7.55779 11.5444 9.02174 10.7924 9.97881 9.61624C10.0875 9.48261 10.1897 9.3435 10.2849 9.1994C10.4205 8.99408 10.2324 8.73329 9.9854 8.72544C9.84308 8.72092 9.69991 8.70593 9.55678 8.68085Z" stroke="white" stroke-width="0.75"/>
</svg>
