<svg width="21" height="22" viewBox="0 0 21 22" fill="none" xmlns="http://www.w3.org/2000/svg">
<path fill-rule="evenodd" clip-rule="evenodd" d="M18.4744 15.814C16.2342 15.4214 13.9999 13.7762 12.6537 11.2633C11.0623 8.29254 11.1764 4.97595 12.7131 2.86995C12.8706 2.6541 13.043 2.45096 13.2301 2.26222C13.5909 1.89819 13.4866 1.21892 12.9793 1.13602C12.6483 1.08196 12.3121 1.04357 11.9714 1.02165C11.7482 1.00729 11.523 1 11.2961 1C5.60974 1 1 5.58047 1 11.2308C1 16.8811 5.60974 21.4615 11.2961 21.4615C14.532 21.4615 17.4192 19.9783 19.3067 17.6588C19.5212 17.3952 19.7227 17.1209 19.9104 16.8367C20.1779 16.4317 19.8069 15.9174 19.3197 15.9019C19.039 15.893 18.7567 15.8634 18.4744 15.814Z" stroke="white" stroke-width="0.75"/>
</svg>
