<svg width="268" height="387" viewBox="0 0 268 387" fill="none" xmlns="http://www.w3.org/2000/svg">
<path d="M84.273 298.618H101.463V346.994H90.5234V332.793C90.5234 323.781 90.6559 315.985 90.9283 309.418C90.067 312.724 88.9774 316.397 87.667 320.425L79.311 346.994H69.9318L61.5759 320.425C60.582 317.207 59.5146 313.563 58.3808 309.485C58.6091 317.097 58.7195 324.864 58.7195 332.793V346.994H47.7794V298.618H64.9698L71.36 319.409C72.2214 322.353 73.333 326.366 74.6877 331.438C75.7772 327.139 76.8594 323.06 77.949 319.21L84.2656 298.626L84.273 298.618ZM110.43 346.994H121.915V298.618H110.43V346.994ZM162.406 308.741C162.406 317.435 162.494 324.938 162.679 331.232C161.052 327.971 158.534 323.531 155.14 317.914L143.316 298.618H130.948V346.994H141.888V336.871C141.888 328.177 141.8 320.726 141.616 314.52C143.022 317.281 145.532 321.676 149.154 327.698L160.978 346.994H173.346V298.618H162.406V308.741ZM220.5 305.038C224.755 309.315 226.89 315.242 226.89 322.802C226.89 330.363 224.762 336.29 220.5 340.567C216.245 344.844 210.127 346.987 202.154 346.987H182.313V298.611H202.154C210.127 298.611 216.237 300.753 220.5 305.03V305.038ZM214.927 322.802C214.927 318.002 213.808 314.387 211.562 311.965C209.317 309.543 206.114 308.329 201.948 308.329H193.798V337.276H201.948C206.114 337.276 209.317 336.062 211.562 333.639C213.808 331.217 214.927 327.602 214.927 322.802ZM267.455 45.9463V340.596C267.433 365.907 246.826 386.513 221.508 386.543H45.9463C20.6357 386.521 0.0294481 365.914 0 340.596V45.9463C0.0220861 20.6283 20.6357 0.0294481 45.9463 0H221.508C246.819 0.0220861 267.425 20.6283 267.455 45.9463ZM254.328 45.9463C254.328 36.9278 250.655 28.7486 244.684 22.7707C238.706 16.8001 230.534 13.1265 221.516 13.1265H45.9537C36.9352 13.1265 28.7634 16.8001 22.7854 22.7707C16.8148 28.7486 13.1411 36.9205 13.1411 45.9463V340.596C13.1411 349.615 16.8148 357.787 22.7854 363.765C28.7634 369.735 36.9352 373.409 45.9537 373.409H221.516C230.534 373.409 238.706 369.735 244.684 363.765C250.655 357.787 254.328 349.615 254.328 340.596V45.9463ZM115.039 109.311C114.34 110.011 113.677 110.739 113.044 111.498C113.677 112.256 114.34 112.985 115.039 113.684C116.725 115.363 118.587 116.857 120.597 118.153C120.229 115.989 120.03 113.773 120.03 111.505C120.03 109.238 120.229 107.014 120.597 104.85C118.587 106.138 116.725 107.633 115.039 109.319V109.311ZM132.877 140.747C128.703 136.904 125.346 132.185 123.115 126.877C117.807 124.646 113.081 121.289 109.245 117.115C106.742 121.775 105.321 127.098 105.321 132.767C105.321 136.359 105.895 139.805 106.948 143.037C110.18 144.089 113.633 144.664 117.225 144.664C122.894 144.664 128.217 143.243 132.877 140.74V140.747ZM123.115 96.1186C125.346 90.8032 128.703 86.0841 132.877 82.2411C128.217 79.738 122.894 78.3171 117.225 78.3171C113.633 78.3171 110.187 78.8915 106.955 79.9442C105.903 83.1762 105.328 86.6289 105.328 90.2216C105.328 95.8903 106.749 101.213 109.252 105.873C113.095 101.699 117.814 98.3419 123.122 96.1112L123.115 96.1186ZM138.494 145.054C132.34 148.963 125.051 151.231 117.225 151.231C114.958 151.231 112.735 151.032 110.57 150.664C111.858 152.673 113.353 154.536 115.039 156.222C121.054 162.229 129.321 165.94 138.494 165.94C147.667 165.94 155.935 162.229 161.95 156.222C163.628 154.536 165.123 152.673 166.418 150.664C164.254 151.032 162.038 151.231 159.771 151.231C151.945 151.231 144.649 148.956 138.502 145.054H138.494ZM99.3209 83.5737C97.3111 84.862 95.4485 86.3566 93.7626 88.0425C87.7552 94.0572 84.0448 102.332 84.0448 111.505C84.0448 120.678 87.7552 128.946 93.7626 134.961C95.4485 136.639 97.3111 138.133 99.3209 139.429C98.9528 137.265 98.7541 135.041 98.7541 132.774C98.7541 124.948 101.029 117.652 104.931 111.505C101.022 105.358 98.7541 98.0622 98.7541 90.2363C98.7541 87.9688 98.9528 85.7455 99.3209 83.581V83.5737ZM138.494 86.0472C137.736 86.6803 137.007 87.3431 136.308 88.0425C134.622 89.7284 133.127 91.5908 131.839 93.6006C134.004 93.2325 136.227 93.0337 138.494 93.0337C140.762 93.0337 142.985 93.2325 145.15 93.6006C143.861 91.5908 142.367 89.7284 140.681 88.0425C139.982 87.3431 139.253 86.6803 138.494 86.0472ZM150.399 111.498C150.399 107.905 149.825 104.46 148.772 101.22C145.54 100.168 142.087 99.5934 138.494 99.5934C134.902 99.5934 131.456 100.168 128.217 101.22C127.164 104.452 126.59 107.905 126.59 111.498C126.59 115.09 127.164 118.536 128.217 121.768C131.449 122.821 134.902 123.395 138.494 123.395C142.087 123.395 145.532 122.821 148.772 121.768C149.825 118.536 150.399 115.083 150.399 111.498ZM159.763 78.3244C154.094 78.3244 148.772 79.7454 144.112 82.2485C148.286 86.0914 151.643 90.8106 153.874 96.1259C159.182 98.3566 163.908 101.706 167.744 105.888C170.247 101.228 171.668 95.9051 171.668 90.2363C171.668 86.6437 171.093 83.1907 170.041 79.9588C166.809 78.906 163.356 78.3318 159.771 78.3318L159.763 78.3244ZM131.839 129.402C133.127 131.412 134.622 133.275 136.308 134.961C137.007 135.66 137.736 136.323 138.494 136.956C139.253 136.323 139.982 135.66 140.681 134.961C142.359 133.275 143.854 131.412 145.15 129.402C142.985 129.77 140.762 129.969 138.494 129.969C136.227 129.969 134.004 129.77 131.846 129.402H131.839ZM177.66 83.5737C178.028 85.7381 178.227 87.9615 178.227 90.229C178.227 98.0548 175.952 105.35 172.043 111.498C175.952 117.645 178.22 124.941 178.227 132.767C178.227 135.034 178.028 137.257 177.66 139.422C179.67 138.133 181.533 136.639 183.218 134.953C189.226 128.938 192.936 120.663 192.936 111.498C192.936 102.325 189.226 94.0499 183.218 88.0351C181.533 86.3565 179.67 84.862 177.66 83.5663V83.5737ZM161.95 113.684C162.649 112.985 163.312 112.256 163.945 111.498C163.312 110.739 162.649 110.011 161.95 109.311C160.264 107.633 158.401 106.138 156.391 104.85C156.759 107.014 156.958 109.23 156.958 111.505C156.958 113.773 156.759 115.989 156.391 118.153C158.401 116.865 160.264 115.37 161.95 113.692V113.684ZM153.874 126.877C151.643 132.185 148.286 136.911 144.112 140.747C148.772 143.25 154.094 144.671 159.763 144.671C163.356 144.671 166.801 144.097 170.033 143.044C171.086 139.812 171.66 136.359 171.66 132.774C171.66 127.105 170.239 121.783 167.736 117.122C163.893 121.297 159.174 124.654 153.866 126.884L153.874 126.877ZM220.684 69.792C231.351 88.3664 232.559 108.185 227.398 128.607C224.24 141.108 218.733 152.526 210.73 162.657C203 172.441 200.424 183.616 200.836 195.874C201.425 213.432 205.79 230.159 211.216 246.701C211.503 247.57 212.004 248.431 212.004 249.293C212.004 250.021 212.74 250.75 212.416 251.479L95.0951 251.273C93.7111 246.097 91.5025 239.133 90.17 233.936C89.6767 232.014 89.2203 230.085 88.7271 228.164C87.689 224.122 84.9355 221.994 80.9085 221.678C75.225 221.236 69.5048 221.207 63.8287 220.669C60.906 220.389 57.9464 219.69 55.193 218.659C49.0752 216.377 44.7022 208.647 45.8433 202.22C46.1967 200.262 47.0654 198.23 48.2212 196.603C49.7084 194.512 49.6642 193.091 47.5366 191.663C46.7194 191.118 46.02 190.382 45.3354 189.675C42.2949 186.561 42.199 183.682 44.9892 180.288C45.2469 179.972 45.512 179.663 45.6077 179.545C43.9291 177.373 42.1181 175.437 40.8445 173.184C40.3144 172.249 40.6751 170.549 41.1315 169.393C41.691 167.957 42.8837 166.794 43.5979 165.403C44.6433 163.378 44.0322 162.266 41.9488 161.442C39.7328 160.558 37.4873 159.66 35.4333 158.46C30.5155 155.604 29.1683 150.664 31.9806 145.724C33.1511 143.662 34.7266 141.807 36.2137 139.93C40.572 134.431 44.9673 128.953 49.3771 123.498C52.1526 120.06 52.7562 116.379 52.101 111.925C50.128 98.467 52.3587 85.4289 58.5944 73.414C68.0251 55.2372 83.1539 43.1635 101.853 35.4775C116.688 29.3891 132.237 28.2186 148.109 29.3891C161.317 30.3683 174.156 32.7314 186.369 37.9953C201.557 44.5401 212.571 55.6864 220.662 69.792H220.684ZM199.503 111.505C199.503 95.0068 189.454 80.8644 175.142 74.8496C169.128 60.5378 154.985 50.4962 138.494 50.4962C122.003 50.4962 107.861 60.5452 101.846 74.857C87.5345 80.8717 77.4853 95.0142 77.4853 111.505C77.4853 127.996 87.5345 142.139 101.846 148.153C107.854 162.465 121.996 172.507 138.494 172.514C154.985 172.514 169.135 162.465 175.142 148.161C189.454 142.146 199.503 128.003 199.503 111.512V111.505ZM138.494 77.949C144.649 74.0397 151.937 71.7723 159.763 71.7723C162.031 71.7723 164.247 71.9711 166.411 72.3392C165.123 70.3294 163.628 68.4668 161.942 66.7809C155.928 60.7734 147.653 57.063 138.487 57.063C129.314 57.063 121.046 60.7734 115.032 66.7809C113.353 68.4668 111.858 70.3294 110.57 72.3392C112.735 71.9711 114.951 71.7723 117.225 71.7723C125.051 71.7723 132.347 74.0471 138.494 77.949ZM223.923 271.224H47.404V281.067H223.923V271.224Z" fill="white"/>
</svg>
