<svg width="94" height="90" viewBox="0 0 94 90" fill="none" xmlns="http://www.w3.org/2000/svg">
<path d="M23.95 74.44H42.31L62.7356 88.0265C65.765 90.0461 69.85 87.8887 69.85 84.2167V74.44C83.62 74.44 92.8 65.26 92.8 51.49V23.95C92.8 10.18 83.62 1 69.85 1H23.95C10.18 1 1 10.18 1 23.95V51.49C1 65.26 10.18 74.44 23.95 74.44Z" fill="#434343" stroke="black" stroke-width="0.918" stroke-miterlimit="10" stroke-linecap="round" stroke-linejoin="round"/>
<path d="M58.0583 17.1269L60.0355 10.792H63.4712L65.4484 17.1269L71.3799 19.2385V22.9079L65.4484 25.0196L63.4712 31.3545H60.0355L58.0583 25.0196L52.1268 22.9079V19.2385L58.0583 17.1269Z" fill="white"/>
<path d="M64.7713 37.1894V59.752H58.7354V37.1894H64.7713Z" fill="white"/>
<path fill-rule="evenodd" clip-rule="evenodd" d="M32.5916 17.85H42.6275L52.7989 59.752H46.5634L44.2162 50.0823H31.0027L28.6554 59.752H22.4199L32.5916 17.85ZM32.5676 43.6358H42.6513L37.9569 24.2965H37.2622L32.5676 43.6358Z" fill="white"/>
</svg>
