<svg width="98" height="95" viewBox="0 0 98 95" fill="none" xmlns="http://www.w3.org/2000/svg">
<path d="M94.5959 2.91408C93.1411 2.91408 91.4439 2.91408 89.9891 2.91408C80.048 3.38666 70.5919 5.51329 61.6208 9.76655C50.7099 14.7287 41.4962 21.8174 34.2223 31.2691C29.1305 37.649 25.4936 44.7378 22.8265 52.2991C22.584 52.7717 22.8265 53.008 23.0689 53.2443C25.2511 55.3709 27.4333 57.4975 29.6155 59.6242C29.8579 59.8605 30.1004 60.333 30.1004 60.8056C30.1004 61.2782 29.8579 61.7508 29.373 61.9871C28.8881 62.2234 28.1607 62.2234 27.9182 61.7508C26.7059 60.5693 25.736 59.6242 24.5237 58.4427C23.0689 57.025 21.8566 55.6072 20.4018 54.4257C19.9169 53.9532 19.6744 53.2443 19.9169 52.5354C23.0689 43.32 27.6758 34.8135 34.2223 27.2522C40.7688 19.4545 48.7702 13.3109 57.7413 8.82138C65.9851 4.56812 74.9563 1.96891 84.1699 0.78745C88.0494 0.314866 91.9288 0.0785744 95.8082 0.314866C97.0206 0.314866 97.263 0.78745 97.5055 1.96891C97.9904 17.3279 94.111 31.5054 85.6247 44.7378C77.1385 57.7338 65.5002 67.4218 50.9523 73.5654C48.7702 74.5106 46.3455 75.2194 43.9209 76.1646C43.1935 76.4009 42.7085 76.4009 42.2236 75.692C39.799 73.3291 37.1319 70.7299 34.7072 68.367C34.2223 67.8944 33.9798 67.1855 34.4648 66.4766C34.9497 65.7678 35.9195 65.7678 36.6469 66.4766C38.8291 68.6033 41.0113 70.7299 43.1935 72.8565C43.6784 73.3291 43.9209 73.3291 44.4058 73.0928C55.0742 69.5484 64.5303 63.8774 72.5317 56.3161C81.9878 47.337 88.2918 36.7038 91.9288 24.6529C93.8685 18.0368 94.8384 11.1843 94.8384 4.09554C94.8384 3.62295 94.5959 3.38666 94.5959 2.91408Z" fill="#41AB97"/>
<path d="M81.2599 30.5598C81.2599 38.5937 74.7133 44.9736 66.4695 44.9736C58.2257 44.9736 51.6792 38.5937 51.6792 30.5598C51.6792 22.7622 58.2257 16.146 66.2271 16.146C74.7133 16.146 81.2599 22.5259 81.2599 30.5598ZM78.3503 30.7961C78.3503 24.1799 73.0161 18.9815 66.2271 18.9815C59.4381 18.9815 54.1038 24.1799 54.1038 30.7961C54.1038 37.4123 59.4381 42.6107 66.2271 42.6107C73.0161 42.3744 78.3503 37.176 78.3503 30.7961Z" fill="#41AB97"/>
<path d="M44.1626 91.0511C45.8598 90.1059 47.5571 88.9244 49.0118 87.743C53.8611 83.4897 56.5282 78.2913 57.7406 72.1477C57.983 71.2026 58.468 70.73 59.1953 70.73C60.1652 70.73 60.6501 71.4389 60.6501 72.384C60.4077 73.5655 60.1652 74.9832 59.6803 76.1647C57.0132 84.1986 52.1639 90.1059 44.6475 94.1229C42.9502 95.068 42.2228 94.5955 41.9804 92.9414C41.0105 87.9793 40.0407 82.7809 39.0708 77.8187C39.0708 77.3461 39.0708 76.8736 39.0708 76.6373C39.3133 76.1647 39.7982 75.9284 40.5256 75.9284C41.0105 75.9284 41.4954 76.401 41.7379 76.8736C41.9804 78.2913 42.2228 79.7091 42.7078 81.3631C42.9502 84.6712 43.6776 87.743 44.1626 91.0511Z" fill="#41AB97"/>
<path d="M4.156 52.0629C5.61079 52.2992 7.06557 52.5355 8.2779 52.7718C11.6724 53.4806 15.0669 53.9532 18.2189 54.6621C18.4614 54.6621 18.4614 54.6621 18.7039 54.6621C19.4313 54.8984 19.9162 55.6073 19.6737 56.3161C19.4313 57.025 18.9463 57.4976 17.9765 57.2613C16.0368 56.7887 13.8546 56.5524 11.9149 56.0798C8.76283 55.371 5.61079 54.8984 2.21629 54.1895C1.97382 54.1895 1.97382 54.1895 1.73136 54.1895C0.519038 53.9532 0.276574 53.2443 0.761503 52.0629C2.21629 49.4637 3.91354 46.8645 6.09572 44.7378C10.7025 40.012 16.2792 37.4128 22.5833 35.995C22.8258 35.995 23.0682 35.995 23.0682 35.7587C23.7956 35.5224 24.523 35.995 24.7655 36.7039C25.0079 37.4128 24.523 38.1217 23.5531 38.3579C22.0984 38.8305 20.4011 39.0668 18.9463 39.5394C12.6423 41.666 7.79297 45.4467 4.156 50.8814C4.39847 51.5903 4.39847 51.8266 4.156 52.0629Z" fill="#41AB97"/>
<path d="M21.3711 73.093C21.6136 72.8567 21.856 72.3842 22.0985 72.1479C26.7053 67.6583 31.0697 63.4051 35.6765 58.9155C37.3737 57.2615 38.8285 55.8437 40.5258 54.1897C41.2532 53.4808 41.9806 53.4808 42.708 53.9534C43.1929 54.426 43.1929 55.3711 42.4655 56.08C37.1313 61.2784 31.7971 66.7131 26.2204 71.9116C25.493 72.6204 24.7656 73.5656 23.7957 74.2745C23.3108 74.7471 22.8259 74.7471 22.341 74.5108C21.6136 74.2745 21.3711 73.8019 21.3711 73.093Z" fill="#41AB97"/>
<path d="M15.0668 79.2354C15.5517 79.4716 16.0367 79.7079 16.2791 80.1805C16.5216 80.6531 16.2791 81.1257 16.0367 81.5983C15.7942 81.8346 15.3093 82.3071 15.0668 82.7797C12.1572 85.6152 9.24766 88.687 6.09563 91.5225C5.6107 91.7588 5.36823 91.9951 4.8833 91.9951C4.39838 91.9951 3.91345 91.7588 3.67098 91.2862C3.42852 90.5774 3.42852 90.1048 3.91345 89.6322C5.85316 87.7419 7.79288 85.8515 9.73259 83.9612C11.1874 82.5434 12.3997 81.362 13.8545 79.9442C14.3394 79.7079 14.5819 79.4716 15.0668 79.2354Z" fill="#41AB97"/>
<path d="M12.8847 69.5479C14.097 69.5479 14.8244 70.7293 14.3395 71.4382C14.097 71.6745 14.097 71.9108 13.8545 72.1471C10.7025 75.2189 7.55045 78.2906 4.39841 81.3624L4.15595 81.5987C3.42856 82.0713 2.70116 82.3076 2.21624 81.5987C1.73131 81.1262 1.73131 80.181 2.21624 79.7084C4.64088 77.3455 7.06552 74.9826 9.49017 72.6196C10.46 71.6745 11.1874 70.9656 12.1573 70.2567C12.3997 69.7841 12.8847 69.5479 12.8847 69.5479Z" fill="#41AB97"/>
<path d="M26.4632 82.7819C26.4632 83.0182 26.2207 83.2545 25.9783 83.7271C22.5838 87.0352 19.4317 90.107 16.0372 93.4151C15.3098 94.124 14.5824 94.124 13.8551 93.4151C13.3701 92.9425 13.3701 91.9973 14.0975 91.5247C17.492 88.2167 20.6441 85.1449 24.0386 81.8368C24.5235 81.3642 25.0084 81.1279 25.7358 81.3642C26.2207 81.6005 26.4632 81.8368 26.4632 82.7819Z" fill="#41AB97"/>
</svg>
