<svg width="81" height="101" viewBox="0 0 81 101" fill="none" xmlns="http://www.w3.org/2000/svg">
<path d="M32.5715 69.4949C31.6017 69.7453 30.8743 69.9957 30.1469 70.4964C29.177 68.9942 28.4497 67.2416 27.4798 65.9897C25.7826 63.486 23.8428 61.2327 22.1456 58.7289C19.4785 54.9734 17.2963 51.2178 16.3265 46.4607C14.1443 34.6932 20.4483 23.1761 31.3592 18.6694C45.6646 12.6605 62.1522 22.6754 64.3344 38.4488C65.3042 45.7096 63.122 51.7185 59.2426 57.4771C57.5454 59.9808 55.3632 62.4845 53.666 65.2386C52.4536 66.9912 51.7263 68.7438 50.514 70.4964C50.029 71.2475 49.5441 71.9987 48.8167 72.249C43.24 74.5024 37.6633 76.5054 32.0866 78.5083C31.3592 78.7587 30.8743 78.5083 30.6318 78.0076C30.3894 77.2565 30.3894 76.5054 31.1168 76.255C31.6017 76.0046 32.0866 75.7542 32.5715 75.7542C37.4208 74.0016 42.2701 72.249 47.1194 70.2461C47.6043 69.9957 48.0893 69.4949 48.3317 68.9942C50.2714 65.2386 52.6961 62.2341 55.1208 58.7289C57.5454 55.4741 59.7276 52.4696 60.6974 48.4637C63.1221 40.4518 61.4248 33.4414 56.0906 27.4324C50.029 20.422 42.2702 18.1687 33.5414 20.9228C24.8127 23.6769 19.9634 29.9362 18.2661 39.1999C17.0538 45.7096 19.236 51.2178 22.873 56.2252C25.0551 59.2297 27.2373 62.2341 29.4195 65.2386C30.8743 66.2401 31.6017 67.7423 32.5715 69.4949Z" fill="#536FD1"/>
<path d="M31.3592 94.2813C31.1167 94.031 30.6318 93.7806 30.6318 93.2799C30.6318 92.7791 30.8743 92.2784 31.1168 91.7776C31.1168 91.5273 31.6017 91.5273 31.8442 91.5273C37.1784 89.5243 42.7551 87.5213 48.0893 85.5183C49.3016 85.0176 49.7865 85.268 50.029 86.0191C50.2715 86.7702 49.7865 87.5213 48.8167 88.022C43.24 90.025 37.9058 92.028 32.3291 94.2813C32.0867 94.031 31.8441 94.031 31.3592 94.2813Z" fill="#536FD1"/>
<path d="M31.3592 86.0191C31.1167 85.7688 30.6318 85.5184 30.6318 85.0176C30.6318 84.5169 30.8743 84.0162 31.1168 83.5154C31.1168 83.265 31.6017 83.2651 31.8442 83.2651C37.1784 81.2621 42.7551 79.2591 48.0893 77.2561C49.3016 76.7554 49.7865 77.0058 50.029 77.7569C50.2715 78.508 50.029 79.2591 48.8167 79.7598C43.24 81.7628 37.9058 84.0162 32.3291 86.0191C32.0867 86.0191 31.8441 86.0191 31.3592 86.0191Z" fill="#536FD1"/>
<path d="M48.8172 93.0293C47.12 99.0382 37.6639 102.543 31.8447 99.2886C37.4214 97.2856 42.9981 95.0323 48.8172 93.0293Z" fill="#536FD1"/>
<path d="M41.5423 5.39927C41.5423 6.40076 41.5423 7.40225 41.5423 8.40373C41.5423 9.15485 41.0574 9.65559 40.33 9.65559C39.6026 9.65559 39.1177 9.15485 39.1177 8.40373C39.1177 6.40076 39.1177 4.39778 39.1177 2.14444C39.1177 1.39332 39.6026 0.892578 40.33 0.892578C41.0574 0.892578 41.5423 1.39332 41.5423 2.14444C41.5423 3.14593 41.5423 4.39778 41.5423 5.39927Z" fill="#536FD1"/>
<path d="M4.93073 40.4512C5.90059 40.4512 6.87048 40.4512 7.84033 40.4512C8.81019 40.4512 9.29514 40.9519 9.29514 41.703C9.29514 42.4541 8.81019 42.9549 7.84033 42.9549C5.90062 42.9549 3.96092 42.9549 2.02121 42.9549C1.05135 42.9549 0.566406 42.4541 0.566406 41.703C0.566406 40.9519 1.05135 40.4512 2.02121 40.4512C2.99106 40.4512 3.96088 40.4512 4.93073 40.4512Z" fill="#536FD1"/>
<path d="M75.7298 43.2054C74.76 43.2054 73.7901 43.2054 72.8202 43.2054C72.0928 43.2054 71.6079 42.7046 71.6079 41.9535C71.6079 41.2024 72.0928 40.7017 72.8202 40.7017C74.7599 40.7017 76.9421 40.7017 78.8818 40.7017C79.6092 40.7017 80.0942 41.2024 80.0942 41.9535C80.0942 42.7046 79.6092 43.2054 78.8818 43.2054C77.6695 43.2054 76.6997 43.2054 75.7298 43.2054Z" fill="#536FD1"/>
<path d="M12.6902 11.9092C13.1751 12.1596 13.4176 12.4099 13.66 12.6603C15.1148 14.1625 16.3272 15.4144 17.782 16.9166C18.5094 17.6677 18.5094 18.1685 17.782 18.9196C17.297 19.4203 16.5696 19.4203 15.8422 18.9196C14.3874 17.4174 12.9327 16.1655 11.7203 14.6633C11.4779 14.4129 11.2354 13.6618 11.4779 13.161C11.7203 12.4099 12.4477 12.1596 12.6902 11.9092Z" fill="#536FD1"/>
<path d="M63.3642 64.2363C63.8491 64.4867 64.0916 64.7371 64.3341 64.9874C65.7888 66.2393 67.0012 67.7415 68.456 68.9934C69.1834 69.7445 69.1834 70.4956 68.6985 70.9964C68.2135 71.4971 67.4861 71.4971 66.7587 70.746C65.3039 69.2438 64.0916 67.9919 62.6369 66.4897C62.3944 66.2393 62.1519 65.4882 62.3944 64.9874C62.3944 64.7371 62.8793 64.4867 63.3642 64.2363Z" fill="#536FD1"/>
<path d="M69.1839 13.4103C68.9415 13.911 68.699 14.1614 68.4566 14.4117C67.0018 15.914 65.7894 17.1658 64.3346 18.6681C63.8497 19.1688 63.1223 19.4192 62.3949 18.6681C61.91 18.1673 61.91 17.4162 62.3949 16.6651C63.8497 15.1629 65.062 13.6606 66.5168 12.4088C66.7593 12.1584 67.4867 11.908 67.9716 12.1584C68.4565 12.4088 68.699 13.1599 69.1839 13.4103Z" fill="#536FD1"/>
<path d="M12.6904 71.4973C12.4479 71.2469 11.963 70.9966 11.7206 70.4958C11.4781 70.2454 11.7206 69.4943 11.7206 69.2439C13.1753 67.7417 14.6301 65.9891 16.3274 64.4869C16.8123 63.9861 17.5396 63.9861 18.0246 64.4869C18.5095 64.9876 18.5095 65.7387 18.0246 66.2395C16.5698 67.7417 15.115 69.244 13.6602 70.7462C13.4178 71.2469 13.1753 71.4973 12.6904 71.4973Z" fill="#536FD1"/>
</svg>
