<svg width="98" height="47" viewBox="0 0 98 47" fill="none" xmlns="http://www.w3.org/2000/svg">
<path d="M18.3644 15.0726C17.637 15.5452 17.1522 16.0177 16.1823 16.4903C13.7577 17.6718 11.333 18.3807 9.1508 19.7984C4.78644 22.6339 4.78639 26.1783 9.39321 28.5412C14 30.9041 18.8493 32.5582 23.9411 33.5033C30.2451 34.6848 36.5493 35.1574 43.0958 35.8663C45.7629 36.1026 48.4301 35.8663 51.3397 35.8663C51.3397 33.9759 51.5821 32.0856 51.5821 29.7227C54.4916 33.0308 56.9163 35.8663 59.5834 38.7018C57.4012 40.8284 54.7341 43.4276 51.5821 46.7357C51.5821 44.3728 51.3397 42.7187 51.3397 41.0647C44.3082 40.5921 37.2766 40.1195 30.4876 39.4106C22.4863 38.4655 14.7275 37.0477 7.45352 33.2671C4.30149 31.613 0.664551 29.7227 0.664551 25.7057C0.664551 21.4525 4.30149 19.5621 7.45352 17.9081C10.6056 16.254 14.0001 15.3089 17.3946 13.8911C17.8796 14.3637 18.122 14.8363 18.3644 15.0726Z" fill="#DF3636"/>
<path d="M64.1895 39.8824C63.7046 35.1565 63.7045 35.3928 67.5839 34.6839C73.888 33.2662 80.1921 31.6121 86.2537 29.7218C88.9208 29.0129 91.5879 27.1226 91.5879 24.0508C91.5879 20.979 88.6784 19.7975 86.4962 18.6161C84.799 17.6709 83.1017 17.1983 81.4044 16.4895C80.677 16.2532 80.1921 15.5443 79.9497 14.5991C85.7688 15.7806 91.1029 17.1983 95.4673 21.4516C98.1344 24.0508 98.1344 27.1226 95.4673 29.7218C94.0125 31.1396 92.3153 32.321 90.3756 33.2662C82.3743 37.2831 73.4031 38.7009 64.1895 39.8824Z" fill="#DF3636"/>
<path d="M80.6778 0.18457C78.2532 0.18457 76.3135 2.07491 76.3135 4.43783C76.3135 6.80075 78.2532 8.69108 80.6778 8.69108C83.1025 8.69108 85.0421 6.80075 85.0421 4.43783C85.0421 2.07491 83.1025 0.18457 80.6778 0.18457ZM80.6778 6.09187C79.7079 6.09187 78.7381 5.383 78.7381 4.20154C78.7381 3.25637 79.4655 2.3112 80.6778 2.3112C81.6477 2.3112 82.6175 3.02008 82.6175 4.20154C82.6175 5.383 81.6477 6.09187 80.6778 6.09187Z" fill="#DF3636"/>
<path d="M37.2766 18.1433C37.2766 22.1602 34.1246 25.232 29.7603 25.232C25.6384 25.232 22.4863 22.3965 22.4863 18.3796H26.1233C26.3658 20.5062 27.8205 21.9239 30.0027 21.9239C32.1848 21.9239 33.8822 20.2699 33.8822 17.907C33.8822 15.5441 32.185 14.1263 29.5179 14.1263H26.8507V13.4174L31.4575 6.56496H23.2137V3.49316H36.7918V4.20204L31.9425 11.5271C34.8521 12.236 37.2766 14.8352 37.2766 18.1433Z" fill="#DF3636"/>
<path d="M56.4313 17.9065C56.4313 22.1597 53.0368 25.4678 48.43 25.4678C43.5807 25.4678 40.4287 22.396 40.4287 17.9065C40.4287 16.0161 41.1561 13.6532 42.8534 10.8177L47.2177 3.25635H51.0971C48.4299 7.7459 47.4602 9.63623 46.4903 11.2903C47.4602 11.054 48.1875 10.8177 49.1574 10.8177C53.0368 10.8177 56.4313 13.6532 56.4313 17.9065ZM52.7943 17.9065C52.7943 15.3072 50.8546 13.6532 48.43 13.6532C45.7629 13.6532 44.0657 15.3072 44.0657 17.9065C44.0657 20.2694 46.0054 22.1597 48.43 22.1597C50.8546 22.1597 52.7943 20.2694 52.7943 17.9065Z" fill="#DF3636"/>
<path d="M58.855 14.1272C58.855 7.27474 62.2494 3.02148 67.5836 3.02148C72.9178 3.02148 76.3124 7.27474 76.3124 14.1272C76.3124 20.9797 72.9178 25.2329 67.5836 25.2329C62.2494 25.2329 58.855 20.9797 58.855 14.1272ZM72.6755 14.1272C72.6755 9.16507 70.7357 6.32957 67.5836 6.32957C64.4316 6.32957 62.4919 9.16507 62.4919 14.1272C62.4919 19.0893 64.4316 21.9248 67.5836 21.9248C70.7357 22.1611 72.6755 19.0893 72.6755 14.1272Z" fill="#DF3636"/>
</svg>
