<svg width="19" height="19" viewBox="0 0 19 19" fill="none" xmlns="http://www.w3.org/2000/svg">
<path fill-rule="evenodd" clip-rule="evenodd" d="M13.5568 12.1813C12.4209 11.9823 11.288 11.1481 10.6054 9.87392C9.7985 8.3676 9.85637 6.68592 10.6355 5.61808C10.7154 5.50863 10.8028 5.40563 10.8977 5.30993C11.0807 5.12535 11.0278 4.78093 10.7705 4.73889C10.6027 4.71148 10.4322 4.69201 10.2595 4.6809C10.1463 4.67362 10.0321 4.66992 9.91709 4.66992C7.03381 4.66992 4.69644 6.99245 4.69644 9.85742C4.69644 12.7224 7.03381 15.0449 9.91709 15.0449C11.5578 15.0449 13.0218 14.2929 13.9788 13.1167C14.0876 12.9831 14.1898 12.844 14.2849 12.6999C14.4206 12.4946 14.2325 12.2338 13.9854 12.2259C13.8431 12.2214 13.6999 12.2064 13.5568 12.1813Z" stroke="white" stroke-width="0.75"/>
</svg>
