<svg width="20" height="22" viewBox="0 0 20 22" fill="none" xmlns="http://www.w3.org/2000/svg">
<path fill-rule="evenodd" clip-rule="evenodd" d="M17.9744 15.314C15.7342 14.9214 13.4999 13.2762 12.1537 10.7633C10.5623 7.79254 10.6764 4.47595 12.2131 2.36995C12.3706 2.1541 12.543 1.95096 12.7301 1.76222C13.0909 1.39819 12.9866 0.718923 12.4793 0.636022C12.1483 0.581958 11.8121 0.54357 11.4714 0.521651C11.2482 0.507292 11.023 0.5 10.7961 0.5C5.10974 0.5 0.5 5.08047 0.5 10.7308C0.5 16.3811 5.10974 20.9615 10.7961 20.9615C14.032 20.9615 16.9192 19.4783 18.8067 17.1588C19.0212 16.8952 19.2227 16.6209 19.4104 16.3367C19.6779 15.9317 19.3069 15.4174 18.8197 15.4019C18.539 15.393 18.2567 15.3634 17.9744 15.314Z" stroke="white" stroke-width="0.75"/>
</svg>
