<svg width="24" height="25" viewBox="0 0 24 25" fill="none" xmlns="http://www.w3.org/2000/svg">
<path fill-rule="evenodd" clip-rule="evenodd" d="M20.8509 17.3993C18.306 16.9503 15.7679 15.0682 14.2386 12.1934C12.4307 8.79482 12.5604 5.00064 14.306 2.59138C14.485 2.34444 14.6809 2.11205 14.8934 1.89612C15.3033 1.47968 15.1848 0.702596 14.6084 0.607757C14.2325 0.545908 13.8506 0.501992 13.4635 0.476917C13.2099 0.46049 12.9541 0.452148 12.6964 0.452148C6.23667 0.452148 1 5.69221 1 12.1562C1 18.6201 6.23667 23.8602 12.6964 23.8602C16.3723 23.8602 19.6522 22.1633 21.7964 19.5098C22.04 19.2083 22.269 18.8944 22.4822 18.5693C22.7861 18.106 22.3647 17.5177 21.8112 17.5C21.4923 17.4898 21.1716 17.4559 20.8509 17.3993Z" stroke="white" stroke-width="0.852"/>
</svg>
