<svg width="13" height="14" viewBox="0 0 13 14" fill="none" xmlns="http://www.w3.org/2000/svg">
<path fill-rule="evenodd" clip-rule="evenodd" d="M11.0654 9.95927C9.77499 9.73156 8.48804 8.77725 7.71262 7.31959C6.79594 5.59635 6.86168 3.67252 7.74681 2.4509C7.83754 2.32569 7.93687 2.20786 8.04463 2.09838C8.25247 1.88722 8.1924 1.4932 7.90014 1.44511C7.70954 1.41375 7.51587 1.39148 7.31961 1.37877C7.19103 1.37044 7.06134 1.36621 6.93066 1.36621C3.65525 1.36621 1 4.02318 1 7.30071C1 10.5783 3.65525 13.2352 6.93066 13.2352C8.79453 13.2352 10.4576 12.3749 11.5448 11.0294C11.6683 10.8765 11.7844 10.7173 11.8925 10.5525C12.0466 10.3176 11.8329 10.0193 11.5523 10.0103C11.3906 10.0051 11.228 9.98796 11.0654 9.95927Z" stroke="white" stroke-width="0.852"/>
</svg>
